Coordinates
version=1
nRows=6
nColumns=34
inDegrees=yes

Units are S.I. units (second, meters, Newtons, ...)
If the header above contains a line with 'inDegrees', this indicates whether rotational values are in degrees (yes) or radians (no).

endheader
time	pelvis_tilt	pelvis_list	pelvis_rotation	pelvis_tx	pelvis_ty	pelvis_tz	hip_flexion_r	hip_adduction_r	hip_rotation_r	knee_angle_r	ankle_angle_r	subtalar_angle_r	mtp_angle_r	hip_flexion_l	hip_adduction_l	hip_rotation_l	knee_angle_l	ankle_angle_l	subtalar_angle_l	mtp_angle_l	lumbar_extension	lumbar_bending	lumbar_rotation	arm_flex_r	arm_add_r	arm_rot_r	elbow_flex_r	pro_sup_r	arm_flex_l	arm_add_l	arm_rot_l	elbow_flex_l	pro_sup_l
      9.93333330	      0.06083688	      0.51462290	     -0.90706768	     -0.59463849	      0.77822459	     -0.16339693	     45.02411139	     -7.80394748	     -4.92969318	     80.38012383	     38.84127794	     -1.75898954	      0.00000000	     44.03084659	     -9.28822070	     -7.66780427	     81.29594773	     37.40910351	      1.87055167	      0.00000000	    -55.60490645	      0.60381467	      2.82431376	     18.90832213	     -8.21592511	    -10.36360578	     35.18363509	     98.21872612	     19.41230684	    -11.41589043	      6.15020841	     32.38048264	     97.76733249
      9.95000000	      0.26546231	      0.49196490	     -0.82592993	     -0.59565582	      0.78713562	     -0.16331755	     43.39446831	     -7.48117422	     -5.02113639	     77.84194191	     37.63806661	     -2.34926320	      0.00000000	     42.67139605	     -9.15202487	     -7.94165157	     78.83254826	     35.98263063	      1.46259097	      0.00000000	    -55.24096610	      0.73037321	      2.77516008	     18.62846996	     -8.16796217	    -10.24336361	     35.40151215	     98.43481957	     19.31004114	    -11.40906248	      6.13046830	     32.64409640	     97.88928181
      9.96666670	      0.15620978	      0.56909863	     -0.81421024	     -0.59848810	      0.79321398	     -0.16475145	     42.45676083	     -7.35982440	     -5.01455850	     75.62959641	     36.26285406	     -2.82569286	      0.00000000	     41.71895325	     -8.87485959	     -8.30222631	     76.57531719	     34.72130379	      1.03190424	      0.00000000	    -54.39631576	      0.82910282	      2.65868261	     18.32763708	     -8.17425596	    -10.08956787	     35.67495005	     98.66767504	     19.05529435	    -11.41215537	      6.14130107	     32.78973512	     98.03425686
      9.98333330	     -0.33811587	      0.59404759	     -0.80261212	     -0.59644361	      0.80008031	     -0.16444794	     41.73431918	     -7.21245085	     -5.10894404	     73.17235266	     35.29876663	     -2.57634741	      0.00000000	     41.18959922	     -8.68719424	     -8.60505683	     74.30833986	     33.81693821	      1.19335198	      0.00000000	    -52.89373531	      0.95196818	      2.55466579	     17.73348748	     -8.16300523	    -10.02409573	     35.65552539	     98.75235538	     18.53193790	    -11.36307566	      6.17173094	     32.75917567	     98.09013526
     10.00000000	     -0.74825339	      0.59785602	     -0.70556930	     -0.59211932	      0.80839778	     -0.16509373	     40.69880751	     -7.08340351	     -5.22720248	     70.64105775	     33.81373908	     -3.12264099	      0.00000000	     40.10947299	     -8.36282823	     -8.80364549	     71.76979471	     32.68873583	      0.86848345	      0.00000000	    -51.38179090	      1.13275862	      2.43894490	     17.07576129	     -8.13014564	     -9.76845508	     35.46681339	     98.98671269	     17.82728325	    -11.25034652	      6.15599945	     32.52498241	     98.22168798
     10.01666670	     -1.24609236	      0.53541151	     -0.61162459	     -0.58959629	      0.81640420	     -0.16439687	     39.60670459	     -6.82701844	     -5.40547878	     67.92097106	     32.78095709	     -3.08050727	      0.00000000	     39.24755393	     -8.25348092	     -9.03160574	     69.52745693	     31.58735160	      0.89682449	      0.00000000	    -49.38962031	      1.34952734	      2.41598558	     16.18539321	     -8.13268690	     -9.59442276	     35.11466654	     99.12036070	     16.97218773	    -11.13203901	      6.17130099	     32.33619784	     98.29821477
